<svg width="29" height="64" viewBox="0 0 29 64" fill="none" xmlns="http://www.w3.org/2000/svg">
<path d="M24.7573 48.8865L22.9899 51.9617L22.4132 61.9874C22.4132 63.0999 18.8657 64 14.5034 64C10.1411 64 6.5936 63.0999 6.5936 61.9874L5.86655 52.0617L3.99878 48.8865C9.16335 51.0492 19.7933 50.9742 24.7573 48.8865ZM0.18803 17.222L1.89284 32.9105C2.63243 30.4104 4.5002 27.0351 6.90699 26.0101C7.69671 25.6726 8.49898 25.6726 9.2511 26.1226C9.90294 26.4976 10.4545 27.2852 10.5172 27.5977C10.6676 28.4102 10.2665 28.7353 9.95308 28.7353C9.57702 28.7353 9.2887 28.1602 9.10067 27.8227C8.58673 26.9101 7.80953 26.8726 6.9822 27.4727C6.11726 28.0977 5.36514 29.1478 4.83865 30.0603C4.19935 31.1604 3.66033 32.373 3.33441 33.5856C3.14638 34.2856 2.97088 35.4107 3.25919 36.0732C3.38455 36.3482 3.57258 36.5233 3.87343 36.5233C4.5002 36.5233 5.41528 35.6982 5.85402 35.2607C6.41811 34.6981 7.14516 33.8231 7.42094 33.2605L8.07277 31.3229C8.39869 30.4729 9.31378 30.6229 9.31378 31.3229C9.31378 32.598 8.84997 33.023 8.06024 35.6607C7.33319 38.0983 7.10755 38.8859 7.10755 38.8859C7.0198 39.2359 6.68135 39.8235 6.31782 39.8235C6.1674 39.8235 6.05458 39.7735 5.9919 39.6734C5.86655 39.4984 5.87909 39.0109 5.89162 38.8859C5.91669 38.4859 6.68135 36.1107 6.8067 35.7357C6.556 36.0107 6.29275 36.2857 6.00444 36.5607C5.32753 37.1983 4.23695 38.0358 3.30934 38.0358C2.88313 38.0358 2.60736 37.9233 2.34411 37.7358L3.2968 47.6865C3.54751 48.3115 8.21066 49.8241 14.353 49.8241C20.5079 49.8241 25.171 48.299 25.4092 47.6865L26.7755 35.8607C26.061 36.5107 25.2337 37.3108 24.3186 37.7108C23.6417 37.9983 22.1375 38.1859 22.1375 36.9983C22.1375 36.3482 23.2782 35.1482 23.9425 34.3106C24.118 34.0981 24.5317 33.5731 24.5317 33.298C24.5317 32.9355 23.7796 33.023 23.0651 33.6106C22.6639 33.9481 22.2879 34.3981 21.9745 34.8231C21.4355 35.5732 21.1472 36.2232 20.909 36.7608C20.1318 38.5359 20.395 37.8358 19.7683 39.5109C19.1415 41.1735 19.2418 40.986 19.1164 41.2611C19.0036 41.4986 18.8407 41.6986 18.615 41.8236C18.3768 41.9486 18.0509 41.9361 17.8504 41.7861C17.7375 41.7111 17.6874 41.5486 17.6874 41.3236C17.6874 41.211 17.6999 41.0985 17.725 40.986C17.913 40.2235 18.7028 38.7234 19.6053 36.6983C19.8059 36.2357 19.7307 36.3732 19.7056 36.4107C18.9284 37.1608 18.3392 37.5233 17.9005 37.7233C17.1735 38.0483 16.2709 38.0483 16.0829 37.2108C16.0703 37.1608 16.0703 37.1108 16.0578 37.0608C14.5786 38.2109 13.0117 38.5234 13.5507 36.0482C12.9741 37.0733 11.9713 37.9108 10.7428 37.9108C10.2289 37.9108 9.8528 37.7358 9.66477 37.2733C9.37645 36.5858 9.82773 35.4107 10.2414 34.2981C10.4545 33.7356 10.7428 33.0605 11.1314 32.273C11.332 31.8479 11.6579 31.5979 12.0841 31.7104C12.1593 31.7354 12.222 31.7604 12.2847 31.7979C12.6106 32.023 12.4852 32.3605 12.3223 32.698C11.8459 33.6356 11.4323 34.3231 11.1565 35.2982C11.0437 35.7107 10.9058 36.4232 11.3445 36.4232C11.6454 36.4232 11.9337 36.3232 12.2094 36.1232C12.7861 35.6982 13.2499 35.0607 13.6009 34.4356C13.8516 33.9856 14.1524 33.398 14.3029 32.898C14.3655 32.6855 14.4407 32.4855 14.5285 32.298C14.6664 31.9855 14.8544 31.6604 15.1803 31.6604C15.3433 31.6604 15.4812 31.7229 15.5815 31.8479C15.7946 32.123 15.7444 32.4105 15.6316 32.7105C15.3809 33.4105 15.0424 34.0356 14.7667 34.7981C14.6037 35.2357 14.4282 35.7982 14.4282 36.2607C14.4282 36.6858 14.892 36.5858 15.2806 36.4107C15.5815 36.2732 15.8823 36.0607 16.133 35.8482C16.2834 35.2357 16.2458 35.3732 19.4424 27.3227C19.6053 26.9101 19.9062 26.7351 20.207 26.7351C20.3574 26.7351 20.4828 26.7851 20.6081 26.8726C20.8212 27.0351 20.8212 27.3852 20.7335 27.6477C20.6457 27.8852 20.6583 27.8102 20.1694 28.9603C19.5176 30.4729 19.0914 31.5604 18.5147 32.948C18.2766 33.5231 17.5495 35.3107 17.4242 35.7357C17.3489 36.0107 17.2612 36.4607 17.5495 36.4607C18.2264 36.4607 19.9688 34.8231 20.4452 34.3356C20.4702 34.2981 20.5079 34.2856 20.558 34.2606C20.6332 34.0231 20.7084 33.7981 20.7711 33.5731C20.9466 33.098 21.1096 32.548 21.4355 32.1605C21.5358 32.0355 21.6486 31.9605 21.7739 31.9605C22.1249 31.9605 22.3004 32.1105 22.3004 32.4605C22.3004 32.598 22.2127 33.098 22.1625 33.2355C22.338 33.048 22.5261 32.8605 22.7266 32.673C24.6069 30.9354 25.9482 31.8229 25.9482 32.698C25.9482 33.6231 24.8326 34.9106 24.2183 35.6232C24.0178 35.8607 23.6041 36.2982 23.5916 36.4232C23.5916 36.5858 23.7044 36.6483 23.8673 36.6483C24.118 36.6483 24.6696 36.2107 24.8702 36.0607C25.4969 35.5732 26.3493 34.8231 26.951 34.2981L28.8063 17.197C24.983 19.3347 4.03639 19.3472 0.18803 17.222ZM28.9818 16.1594C28.9818 18.7846 0 18.7846 0 16.1594C0 15.0594 6.49332 14.1718 14.4909 14.1718C15.6191 14.1718 16.7222 14.1843 17.7877 14.2218L19.3671 8.13394L27.0513 0.0709235C27.2268 -0.104088 27.7784 0.0459218 28.2923 0.508451C28.8063 0.970981 29.1197 1.49601 28.9567 1.67103L28.9442 1.68353L21.7614 9.24651L20.5079 14.3343C25.5095 14.6594 28.9818 15.3469 28.9818 16.1594ZM20.2822 16.7345C20.2822 16.6345 20.1694 16.547 19.9688 16.472L19.9438 16.572C19.9438 16.7345 19.317 16.872 18.5523 16.872C17.7877 16.872 17.1609 16.7345 17.1609 16.572C17.1609 16.5595 17.1609 16.547 17.1735 16.5345L17.1985 16.447C16.9729 16.522 16.8225 16.622 16.8225 16.7345C16.8225 16.997 17.5997 17.197 18.5398 17.197C19.505 17.2095 20.2822 16.997 20.2822 16.7345Z" fill="#F4F4F4"/>
</svg>
