<svg width="44" height="44" viewBox="0 0 44 44" fill="none" xmlns="http://www.w3.org/2000/svg">
<circle cx="22" cy="22" r="22" fill="#F4F4F4"/>
<path d="M37.5 25.1667V36H31.2842V25.892C31.2842 23.3521 30.3848 21.6198 28.1356 21.6198C26.4181 21.6198 25.3952 22.7884 24.9463 23.9174C24.7821 24.3211 24.7399 24.8834 24.7399 25.4486V36H18.5212C18.5212 36 18.6055 18.8817 18.5212 17.1068H24.7399V19.7846L24.6993 19.8463H24.7399V19.7846C25.5652 18.5 27.04 16.6634 30.3426 16.6634C34.4328 16.6634 37.5 19.3647 37.5 25.1667ZM12.0177 8C9.89195 8 8.5 9.4094 8.5 11.2636C8.5 13.0768 9.85127 14.5287 11.9363 14.5287H11.977C14.1463 14.5287 15.4932 13.0768 15.4932 11.2636C15.4554 9.4094 14.1463 8 12.0177 8ZM8.86906 36H15.0849V17.1068H8.86906V36Z" fill="#782BF5"/>
</svg>
