<svg width="64" height="64" viewBox="0 0 64 64" fill="none" xmlns="http://www.w3.org/2000/svg">
<path d="M1.89742 27.4846L20.4073 8.94271L25.8194 14.3868C25.0508 17.1088 26.2997 20.0871 28.7976 21.5281V39.2695C26.8762 40.3583 25.5952 42.4398 25.5952 44.8096C25.5952 46.5083 26.27 48.1374 27.4711 49.3385C28.6723 50.5396 30.3013 51.2144 32 51.2144C33.6987 51.2144 35.3277 50.5396 36.5289 49.3385C37.73 48.1374 38.4048 46.5083 38.4048 44.8096C38.4048 42.4398 37.1238 40.3583 35.2024 39.2695V23.7058L41.8314 30.3988C41.6072 30.8792 41.6072 31.4236 41.6072 32C41.6072 33.6987 42.282 35.3277 43.4831 36.5289C44.6843 37.73 46.3133 38.4048 48.012 38.4048C49.7107 38.4048 51.3398 37.73 52.5409 36.5289C53.742 35.3277 54.4168 33.6987 54.4168 32C54.4168 30.3013 53.742 28.6723 52.5409 27.4711C51.3398 26.27 49.7107 25.5952 48.012 25.5952C47.4356 25.5952 46.8912 25.5952 46.4108 25.8194L38.1806 17.5892C38.5783 16.106 38.4241 14.5288 37.7468 13.1506C37.0695 11.7725 35.9151 10.6869 34.4979 10.0956C33.1208 9.58319 31.6798 9.45509 30.3988 9.80736L24.9547 4.3953L27.4846 1.89742C29.9825 -0.632474 34.0175 -0.632474 36.5154 1.89742L62.1026 27.4846C64.6325 29.9825 64.6325 34.0175 62.1026 36.5154L36.5154 62.1026C34.0175 64.6325 29.9825 64.6325 27.4846 62.1026L1.89742 36.5154C-0.632474 34.0175 -0.632474 29.9825 1.89742 27.4846Z" fill="#F4F4F4"/>
</svg>
