<svg width="55" height="66" viewBox="0 0 55 66" fill="none" xmlns="http://www.w3.org/2000/svg">
<mask id="mask0_9_305" style="mask-type:luminance" maskUnits="userSpaceOnUse" x="-2" y="-2" width="57" height="68">
<path d="M49.6468 0H3.35323C2.88642 5.62264e-05 2.42477 0.0985223 1.99781 0.289097C1.57085 0.479671 1.18799 0.758157 0.873737 1.10673C0.559483 1.4553 0.320756 1.86629 0.172832 2.31338C0.0249076 2.76047 -0.0289551 3.23383 0.0146916 3.70315L4.52197 52.242C4.57656 52.8327 4.78389 53.3987 5.1232 53.883C5.46251 54.3674 5.92189 54.7533 6.45534 55.002L25.0948 63.6884C25.5354 63.8937 26.0148 64 26.5 64C26.9852 64 27.4646 63.8937 27.9052 63.6884L46.5447 55.002C47.0784 54.7535 47.5382 54.3678 47.8778 53.8834C48.2174 53.399 48.425 52.8329 48.4797 52.242L52.9853 3.70315C53.029 3.23383 52.9751 2.76047 52.8272 2.31338C52.6793 1.86629 52.4405 1.4553 52.1263 1.10673C51.812 0.758157 51.4292 0.479671 51.0022 0.289097C50.5752 0.0985223 50.1136 5.62264e-05 49.6468 0Z" fill="white" stroke="white" stroke-width="4"/>
<path d="M39.913 11.8529H13.084L14.7608 27.0922H38.2362L36.5594 45.718L26.4985 50.7978L16.4376 45.718L15.5992 37.2517" stroke="black" stroke-width="4" stroke-linecap="round" stroke-linejoin="round"/>
</mask>
<g mask="url(#mask0_9_305)">
<path d="M-9.00684 -0.497437H58.5971V67.7692H-9.00684V-0.497437Z" fill="#F4F4F4"/>
</g>
</svg>
