<svg width="57" height="64" viewBox="0 0 57 64" fill="none" xmlns="http://www.w3.org/2000/svg">
<path d="M28.496 64C27.6363 64 26.7793 63.776 26.0267 63.3413L18.1635 58.7094C16.9905 58.0561 17.5636 57.8241 17.9493 57.6881C19.516 57.1467 19.832 57.0214 21.5059 56.0774C21.68 55.9788 21.9103 56.0161 22.0897 56.1228L28.1318 59.6934C28.2439 59.7527 28.369 59.7837 28.496 59.7837C28.623 59.7837 28.748 59.7527 28.8602 59.6934L52.4149 46.1575C52.5247 46.0916 52.6155 45.9985 52.6784 45.8873C52.7413 45.7761 52.7742 45.6505 52.7738 45.5229V18.4565C52.7736 18.3266 52.7397 18.1989 52.6755 18.0859C52.6112 17.9728 52.5187 17.8782 52.4069 17.8112L28.8629 4.28598C28.752 4.22432 28.627 4.19196 28.5 4.19196C28.373 4.19196 28.248 4.22432 28.1371 4.28598L4.59846 17.8138C4.48625 17.8802 4.39307 17.9741 4.32788 18.0867C4.26268 18.1992 4.22766 18.3266 4.22619 18.4565V45.5229C4.22671 45.6508 4.26148 45.7764 4.32691 45.8865C4.39234 45.9966 4.48607 46.0874 4.59846 46.1495L11.0502 49.8615C14.5506 51.6055 16.6959 49.5522 16.6959 47.4882V20.7658C16.6959 20.3871 17.0012 20.0911 17.3815 20.0911H20.3677C20.7399 20.0911 21.0506 20.3898 21.0506 20.7658V47.4882C21.0506 52.1415 18.5063 54.8081 14.0766 54.8081C12.7161 54.8081 11.6421 54.8081 8.65057 53.3388L2.46929 49.8002C1.71795 49.3645 1.09452 48.7402 0.661224 47.9897C0.227931 47.2392 -6.36562e-05 46.3886 1.33316e-08 45.5229V18.4565C1.33316e-08 16.6992 0.945402 15.0565 2.46929 14.1819L26.024 0.630015C26.7828 0.216654 27.6338 0 28.4987 0C29.3636 0 30.2146 0.216654 30.9733 0.630015L54.5253 14.1819C56.0519 15.0592 57 16.6992 57 18.4565V45.5229C56.9984 46.3889 56.7692 47.2394 56.335 47.9898C55.9009 48.7402 55.277 49.3644 54.5253 49.8002L30.9733 63.3413C30.2234 63.776 29.3691 64 28.496 64ZM47.5138 37.315C47.5138 32.2483 44.075 30.899 36.8359 29.947C29.5217 28.9844 28.7772 28.4857 28.7772 26.7817C28.7772 25.3738 29.4066 23.4938 34.8246 23.4938C39.6641 23.4938 41.4477 24.5311 42.1816 27.7791C42.215 27.9291 42.2987 28.0634 42.4189 28.1598C42.5391 28.2563 42.6887 28.3091 42.8431 28.3097H45.8989C45.9922 28.3088 46.0844 28.2892 46.17 28.2521C46.2556 28.215 46.3328 28.1611 46.397 28.0937C46.4617 28.0238 46.5111 27.9412 46.542 27.8512C46.5729 27.7612 46.5846 27.6658 46.5765 27.5711C46.1024 21.9765 42.369 19.3685 34.8246 19.3685C28.1076 19.3685 24.1011 22.1898 24.1011 26.9231C24.1011 32.0563 28.0862 33.475 34.5326 34.1097C42.2458 34.8617 42.8431 35.9843 42.8431 37.4936C42.8431 40.1149 40.73 41.2322 35.7673 41.2322C29.5351 41.2322 28.1639 39.6749 27.7032 36.587C27.6777 36.4266 27.5953 36.2806 27.471 36.1755C27.3467 36.0703 27.1887 36.0129 27.0257 36.0136H23.9805C23.8912 36.0129 23.8027 36.0299 23.72 36.0635C23.6373 36.0971 23.5622 36.1467 23.4989 36.2095C23.4356 36.2723 23.3855 36.3469 23.3514 36.4291C23.3173 36.5113 23.2999 36.5994 23.3003 36.6883C23.3003 40.6403 25.4589 45.3495 35.7673 45.3495C43.2341 45.3522 47.5138 42.4269 47.5138 37.315Z" fill="#F4F4F4"/>
</svg>
