<svg width="64" height="64" viewBox="0 0 64 64" fill="none" xmlns="http://www.w3.org/2000/svg">
<path fill-rule="evenodd" clip-rule="evenodd" d="M32 0C38.329 0 44.5159 1.87677 49.7782 5.39297C55.0406 8.90918 59.1421 13.9069 61.5641 19.7541C63.9861 25.6014 64.6198 32.0355 63.3851 38.2429C62.1504 44.4503 59.1027 50.1521 54.6274 54.6274C50.1521 59.1027 44.4503 62.1504 38.2429 63.3851C32.0355 64.6198 25.6014 63.9861 19.7541 61.5641C13.9069 59.1421 8.90918 55.0406 5.39297 49.7782C1.87677 44.5159 0 38.329 0 32C0 23.5131 3.37142 15.3737 9.37258 9.37258C15.3737 3.37142 23.5131 0 32 0Z" fill="#F4F4F4"/>
<path d="M52.0723 13.696C50.6232 8.0137 41.1992 6.15313 32.2803 9.31199C26.6947 11.1889 21.5342 14.149 17.094 18.0228C12.182 22.6171 11.398 26.6171 11.7203 28.288C12.8632 34.1851 20.9386 38.0388 24.2598 40.8983V40.9143C23.2815 41.3966 16.1135 45.0286 14.4312 48.7314C12.662 52.6446 14.7123 55.4514 16.0723 55.8285C18.1142 56.3201 20.2587 56.1601 22.2051 55.371C24.1514 54.5819 25.8019 53.2033 26.9249 51.4286C27.853 49.9907 28.4337 48.3564 28.6209 46.6553C28.8082 44.9541 28.5969 43.2328 28.0038 41.6274C29.6035 41.2209 31.2663 41.1255 32.902 41.3463C38.5158 42.0023 39.6175 45.5063 39.4072 46.9737C39.3083 47.496 39.098 47.991 38.7908 48.4248C38.4836 48.8587 38.0865 49.2213 37.6266 49.488C37.2335 49.7325 37.1123 49.8148 37.1466 49.9977C37.1946 50.2606 37.3752 50.2514 37.7112 50.1943C38.5548 49.9286 39.2981 49.4136 39.8432 48.7171C40.3883 48.0206 40.7097 47.1753 40.7649 46.2926C40.8997 42.864 37.606 39.0103 31.7729 39.1086C30.0787 39.0602 28.3882 39.2919 26.7695 39.7943C26.6884 39.7017 26.6062 39.6103 26.5226 39.52C22.9158 35.6731 16.2506 32.9508 16.5318 27.7783C16.6346 25.8971 17.2883 20.9463 29.3318 14.9394C39.206 10.0183 47.11 11.3737 48.4769 14.3748C50.4289 18.6628 44.2529 26.6286 33.9992 27.7783C32.8659 28.0083 31.6953 27.9803 30.5743 27.6962C29.4533 27.4121 28.4107 26.8792 27.5238 26.1371C26.9843 25.5428 26.9043 25.5177 26.7032 25.6274C26.3763 25.808 26.5843 26.3337 26.7032 26.6446C27.0958 27.3522 27.6258 27.9742 28.262 28.4743C28.8983 28.9743 29.628 29.3423 30.4083 29.5566C34.4398 30.4325 38.6448 30.0167 42.4266 28.368C48.646 25.9703 53.4963 19.2846 52.0723 13.696ZM25.6403 42.6583C26.0943 44.2233 26.0712 45.8881 25.574 47.44C25.5207 47.6015 25.462 47.7615 25.398 47.92C25.334 48.0785 25.2647 48.2308 25.19 48.3771C24.8054 49.1642 24.3071 49.8904 23.7112 50.5326C21.8529 52.56 19.254 53.328 18.1409 52.6811C16.9386 51.984 17.5398 49.1246 19.6952 46.8457C21.3514 45.208 23.2608 43.848 25.35 42.8183L25.6403 42.6583Z" fill="#782BF5"/>
</svg>
