<svg width="65" height="64" viewBox="0 0 65 64" fill="none" xmlns="http://www.w3.org/2000/svg">
<path d="M4.54864 31.9991C4.54864 42.8653 10.8631 52.2554 20.0202 56.7055L6.92536 20.8273C5.35562 24.3424 4.54571 28.1494 4.54864 31.9991ZM50.5323 30.6137C50.5323 27.2213 49.3135 24.8717 48.2685 23.0431C46.8768 20.7819 45.5725 18.8669 45.5725 16.6057C45.5725 14.0821 47.4864 11.733 50.1824 11.733C50.3041 11.733 50.4193 11.7481 50.538 11.7551C45.6541 7.28049 39.1471 4.54864 32.0004 4.54864C22.4099 4.54864 13.9724 9.46923 9.06391 16.9221C9.70791 16.9415 10.3148 16.9548 10.8305 16.9548C13.7016 16.9548 18.1464 16.6067 18.1464 16.6067C19.6264 16.5193 19.8008 18.6928 18.3226 18.8679C18.3226 18.8679 16.8353 19.0429 15.1804 19.1294L25.1777 48.8645L31.1852 30.8472L26.9081 19.1287C25.4299 19.0421 24.0295 18.8672 24.0295 18.8672C22.5502 18.7803 22.7236 16.5186 24.2029 16.6059C24.2029 16.6059 28.7365 16.9543 31.4337 16.9543C34.3048 16.9543 38.7498 16.6059 38.7498 16.6059C40.2305 16.5186 40.4047 18.692 38.926 18.8672C38.926 18.8672 37.4357 19.0421 35.7838 19.1287L45.7045 48.6384L48.4427 39.4884C49.6293 35.6914 50.5325 32.9644 50.5325 30.614L50.5323 30.6137ZM32.482 34.4004L24.2455 58.334C26.7637 59.0757 29.3753 59.4523 32.0004 59.4524C35.197 59.4524 38.2627 58.8997 41.1165 57.8963C41.0403 57.7763 40.9749 57.6497 40.921 57.5181L32.482 34.4004ZM56.0881 18.8288C56.2129 19.7645 56.2747 20.7075 56.273 21.6515C56.273 24.4373 55.7528 27.5687 54.1857 31.4841L45.8004 55.7282C53.9616 50.969 59.4509 42.1272 59.4509 31.9999C59.4514 27.2271 58.2324 22.739 56.0881 18.8288ZM32.0004 0C14.3557 0 0 14.3547 0 31.9991C0 49.6458 14.3557 64 32.0004 64C49.6443 64 64.002 49.6458 64.002 31.9991C64.0018 14.3547 49.6443 0 32.0004 0ZM32.0004 62.5333C15.1651 62.5333 1.46719 48.8357 1.46719 31.9991C1.46719 15.1638 15.1643 1.46719 32.0004 1.46719C48.8352 1.46719 62.5318 15.1638 62.5318 31.9991C62.5318 48.8357 48.8352 62.5333 32.0004 62.5333Z" fill="#F4F4F4"/>
</svg>
