<svg width="44" height="44" viewBox="0 0 44 44" fill="none" xmlns="http://www.w3.org/2000/svg">
<rect width="44" height="44" rx="22" fill="#782BF5"/>
<path d="M22 0C9.845 0 3.211e-06 10.0943 3.211e-06 22.557C-0.00249207 27.2924 1.44939 31.9083 4.14968 35.7499C6.84996 39.5915 10.6615 42.4637 15.0436 43.9591C16.1436 44.1554 16.555 43.4786 16.555 42.8854C16.555 42.3508 16.5264 40.5756 16.5264 38.6853C11 39.7297 9.57 37.3048 9.13 36.0348C8.8814 35.3852 7.81 33.3844 6.875 32.8475C6.105 32.4257 5.005 31.3813 6.8464 31.3542C8.58 31.3249 9.8164 32.9896 10.23 33.6663C12.21 37.077 15.3736 36.1183 16.6364 35.5273C16.83 34.0611 17.4064 33.0754 18.04 32.5114C13.145 31.9475 8.03 30.0008 8.03 21.3728C8.03 18.9186 8.8814 16.8907 10.285 15.3094C10.065 14.7455 9.295 12.4334 10.505 9.33184C10.505 9.33184 12.3464 8.74084 16.555 11.6462C18.3459 11.1365 20.1964 10.88 22.055 10.8838C23.925 10.8838 25.795 11.1364 27.555 11.6439C31.7614 8.71152 33.605 9.33409 33.605 9.33409C34.815 12.4357 34.045 14.7478 33.825 15.3117C35.2264 16.8907 36.08 18.8915 36.08 21.3728C36.08 30.0302 30.9386 31.9475 26.0436 32.5114C26.84 33.2152 27.5286 34.5686 27.5286 36.6845C27.5286 39.7003 27.5 42.1252 27.5 42.8877C27.5 43.4786 27.9136 44.1824 29.0136 43.9569C33.3807 42.4451 37.1754 39.5672 39.8638 35.7284C42.5521 31.8895 43.9988 27.283 44 22.557C44 10.0943 34.155 0 22 0Z" fill="#F4F4F4"/>
</svg>
