<svg width="141" height="22" viewBox="0 0 141 22" fill="none" xmlns="http://www.w3.org/2000/svg">
<path d="M6.04 21.712H0.92V1.456H6.04V9.936C6.08267 9.936 6.11467 9.936 6.136 9.936C6.34933 9.936 6.59467 9.76533 6.872 9.424C7.17067 9.08267 7.43733 8.74133 7.672 8.4L11.96 1.456H17.528V1.552L13.88 7.44C13.56 7.97333 13.1973 8.54933 12.792 9.168C12.3867 9.76533 11.9813 10.2987 11.576 10.768C11.192 11.216 10.8507 11.4933 10.552 11.6V11.696C10.8507 11.824 11.192 12.1013 11.576 12.528C11.9813 12.9333 12.3867 13.4133 12.792 13.968C13.2187 14.5013 13.624 15.0347 14.008 15.568L18.264 21.616V21.712H12.376L8.376 15.568V15.6C8.248 15.3867 8.04533 15.1093 7.768 14.768C7.512 14.4053 7.23467 14.0747 6.936 13.776C6.65867 13.4773 6.41333 13.328 6.2 13.328C6.15733 13.328 6.12533 13.328 6.104 13.328C6.08267 13.328 6.06133 13.328 6.04 13.328V21.712ZM19.6863 11.568C19.6863 8.98667 19.9743 6.93867 20.5503 5.424C21.1476 3.90933 22.1609 2.82133 23.5903 2.16C25.0409 1.49867 27.0569 1.168 29.6383 1.168C31.5796 1.168 33.1903 1.34933 34.4703 1.712C35.7503 2.07467 36.7636 2.66133 37.5103 3.472C38.2569 4.28267 38.7796 5.36 39.0783 6.704C39.3983 8.02667 39.5583 9.648 39.5583 11.568C39.5583 13.5093 39.3983 15.152 39.0783 16.496C38.7796 17.8187 38.2569 18.8853 37.5103 19.696C36.7636 20.5067 35.7503 21.0933 34.4703 21.456C33.1903 21.8187 31.5796 22 29.6383 22C27.6969 22 26.0863 21.8187 24.8063 21.456C23.5263 21.0933 22.5129 20.5067 21.7663 19.696C21.0196 18.8853 20.4863 17.8187 20.1663 16.496C19.8463 15.152 19.6863 13.5093 19.6863 11.568ZM29.6383 17.52C31.0036 17.52 32.0276 17.3493 32.7103 17.008C33.3929 16.6667 33.8516 16.0693 34.0863 15.216C34.3209 14.3413 34.4383 13.1253 34.4383 11.568C34.4383 10.032 34.3209 8.83733 34.0863 7.984C33.8516 7.13067 33.3929 6.53333 32.7103 6.192C32.0276 5.82933 31.0036 5.648 29.6383 5.648C28.2943 5.648 27.2703 5.82933 26.5663 6.192C25.8836 6.53333 25.4143 7.13067 25.1583 7.984C24.9236 8.83733 24.8063 10.032 24.8063 11.568C24.8063 13.1253 24.9236 14.3413 25.1583 15.216C25.4143 16.0693 25.8836 16.6667 26.5663 17.008C27.2703 17.3493 28.2943 17.52 29.6383 17.52ZM42.2518 16.496C43.1904 16.816 44.2144 17.072 45.3238 17.264C46.4544 17.4347 47.5744 17.52 48.6838 17.52C50.1984 17.52 51.3184 17.456 52.0438 17.328C52.7904 17.1787 53.2811 16.9547 53.5158 16.656C53.7504 16.3573 53.8678 15.9733 53.8678 15.504C53.8678 15.0987 53.7824 14.7787 53.6118 14.544C53.4411 14.3093 53.1104 14.128 52.6198 14C52.1291 13.8507 51.4038 13.7333 50.4438 13.648L48.3318 13.456C46.7531 13.3067 45.5051 12.976 44.5878 12.464C43.6918 11.952 43.0518 11.2693 42.6678 10.416C42.3051 9.54133 42.1238 8.496 42.1238 7.28C42.1238 5.82933 42.4118 4.656 42.9878 3.76C43.5851 2.864 44.5451 2.21333 45.8678 1.808C47.1904 1.38133 48.9504 1.168 51.1478 1.168C54.0064 1.168 56.3638 1.54133 58.2198 2.288L58.1238 6.64L58.0278 6.768C55.9158 6.02133 53.7078 5.648 51.4038 5.648C50.2944 5.648 49.4411 5.712 48.8438 5.84C48.2464 5.94667 47.8304 6.128 47.5958 6.384C47.3611 6.64 47.2438 7.00267 47.2438 7.472C47.2438 7.94133 47.3184 8.29333 47.4678 8.528C47.6384 8.76267 47.9691 8.944 48.4598 9.072C48.9504 9.17867 49.6651 9.28533 50.6038 9.392L52.6198 9.616C54.3264 9.808 55.6384 10.1493 56.5558 10.64C57.4731 11.1307 58.1024 11.792 58.4438 12.624C58.8064 13.4347 58.9878 14.4267 58.9878 15.6C58.9878 17.0293 58.6784 18.224 58.0598 19.184C57.4624 20.1227 56.4811 20.8267 55.1158 21.296C53.7504 21.7653 51.9264 22 49.6438 22C48.1504 22 46.8064 21.9253 45.6118 21.776C44.4171 21.6053 43.2544 21.3813 42.1238 21.104V16.592L42.2518 16.496ZM71.4493 20.688C71.0866 19.536 70.7133 18.3093 70.3293 17.008C69.9666 15.7067 69.6039 14.416 69.2413 13.136C68.8786 11.856 68.5479 10.6613 68.2493 9.552C67.9506 8.44267 67.6946 7.48267 67.4813 6.672C67.2679 5.86133 67.1186 5.28533 67.0333 4.944L66.9053 4.976C66.9693 5.36 67.0226 5.872 67.0653 6.512C67.1079 7.13067 67.1399 7.792 67.1613 8.496C67.1826 9.17867 67.1933 9.808 67.1933 10.384V21.712H62.2973V1.456H70.8733C71.1719 2.58667 71.4813 3.78133 71.8013 5.04C72.1426 6.27733 72.4733 7.51467 72.7933 8.752C73.1346 9.968 73.4333 11.1307 73.6893 12.24C73.9453 13.328 74.1266 14.2773 74.2333 15.088H74.2973C74.4039 14.2773 74.5746 13.328 74.8093 12.24C75.0653 11.152 75.3533 9.98933 75.6733 8.752C75.9933 7.51467 76.3239 6.27733 76.6653 5.04C77.0066 3.78133 77.3159 2.58667 77.5933 1.456H86.0413V21.712H81.2093V10.384C81.2093 9.808 81.2199 9.17867 81.2413 8.496C81.2626 7.792 81.2946 7.13067 81.3373 6.512C81.4013 5.872 81.4546 5.36 81.4973 4.976L81.3693 4.944C81.2839 5.28533 81.1346 5.86133 80.9213 6.672C80.7079 7.48267 80.4413 8.45333 80.1213 9.584C79.8226 10.6933 79.4919 11.888 79.1293 13.168C78.7666 14.448 78.3933 15.7387 78.0093 17.04C77.6466 18.32 77.2946 19.536 76.9533 20.688H71.4493ZM99.7105 21.712L99.5185 19.44H99.3905C99.0278 20.2933 98.5052 20.9333 97.8225 21.36C97.1612 21.7867 96.1905 22 94.9105 22C92.8412 22 91.3265 21.4027 90.3665 20.208C89.4065 18.992 88.9052 17.168 88.8625 14.736C88.8412 12.56 89.0652 10.832 89.5345 9.552C90.0038 8.272 90.7398 7.35467 91.7425 6.8C92.7452 6.24533 94.0252 5.968 95.5825 5.968C96.3932 5.968 97.1292 6.04267 97.7905 6.192C98.4518 6.32 98.9852 6.50133 99.3905 6.736L99.4545 6.704V0.175999H104.575V21.712H99.7105ZM96.5745 17.648C97.4278 17.648 98.1212 17.3813 98.6545 16.848C99.1878 16.3147 99.4545 15.4293 99.4545 14.192V10.832C98.6652 10.512 97.7372 10.352 96.6705 10.352C95.6678 10.352 94.9425 10.5973 94.4945 11.088C94.0678 11.5573 93.8545 12.5173 93.8545 13.968C93.8545 15.2053 94.0252 16.1333 94.3665 16.752C94.7292 17.3493 95.4652 17.648 96.5745 17.648ZM122.148 21.2C121.551 21.4133 120.719 21.6053 119.652 21.776C118.607 21.9253 117.359 22 115.908 22C114.073 22 112.505 21.7653 111.204 21.296C109.924 20.8053 108.953 19.984 108.292 18.832C107.631 17.6587 107.3 16.0373 107.3 13.968C107.3 11.152 107.94 9.11467 109.22 7.856C110.521 6.59733 112.527 5.968 115.236 5.968C117.177 5.968 118.703 6.24533 119.812 6.8C120.943 7.35467 121.743 8.144 122.212 9.168C122.703 10.1707 122.948 11.3653 122.948 12.752C122.948 13.1573 122.927 13.5947 122.884 14.064C122.863 14.5333 122.809 14.992 122.724 15.44L122.596 15.568H112.068C112.217 16.5067 112.655 17.1253 113.38 17.424C114.127 17.7227 115.332 17.872 116.996 17.872C118.105 17.872 119.023 17.8507 119.748 17.808C120.495 17.744 121.252 17.6587 122.02 17.552L122.148 17.648V21.2ZM118.5 12.208C118.5 11.696 118.415 11.2587 118.244 10.896C118.095 10.512 117.785 10.224 117.316 10.032C116.847 9.81867 116.153 9.712 115.236 9.712C113.892 9.712 113.007 9.94667 112.58 10.416C112.175 10.864 111.972 11.4613 111.972 12.208H118.5ZM140.358 6.224L135.27 21.712H128.87L124.07 6.192V6.128H129.83C130.278 7.792 130.694 9.59467 131.078 11.536C131.483 13.4773 131.846 15.344 132.166 17.136H132.294C132.614 15.344 132.966 13.4773 133.35 11.536C133.755 9.59467 134.182 7.792 134.63 6.128H140.358V6.224Z" fill="#782BF5"/>
</svg>
