<svg width="1920" height="1694" viewBox="0 0 1920 1694" fill="none" xmlns="http://www.w3.org/2000/svg">
<path d="M-203 38.0524C-203 38.0524 26.0075 -45.3155 143.475 38.0524C244.486 109.741 211.604 273.185 314.289 341.108C420.76 411.534 519.364 264.876 623.209 341.108C723.904 415.026 672.587 587.605 772.217 663.715C861.01 731.545 954.894 621.639 1037.53 700.562C1109.14 768.961 1065.23 892.886 1138.08 959.25C1241.74 1053.7 1354.1 840.263 1465.77 919.394C1564.85 989.596 1515.15 1155.31 1609.33 1235.23C1712.88 1323.11 1828.55 1179.07 1929.15 1272.08C1989.48 1327.85 2040 1467.6 2040 1467.6" stroke="#782BF5" stroke-opacity="0.1" stroke-width="2"/>
<path d="M-193 53.079C-193 53.079 36.0075 -30.2889 153.475 53.079C254.486 124.768 221.604 288.211 324.289 356.134C430.76 426.561 529.364 279.903 633.209 356.134C733.904 430.053 682.587 602.632 782.217 678.741C871.01 746.571 964.894 636.666 1047.53 715.589C1119.14 783.987 1075.23 907.913 1148.08 974.276C1251.74 1068.72 1364.1 855.29 1475.77 934.42C1574.85 1004.62 1525.15 1170.34 1619.33 1250.26C1722.88 1338.14 1838.55 1194.1 1939.15 1287.11C1999.48 1342.87 2050 1482.63 2050 1482.63" stroke="#782BF5" stroke-opacity="0.1" stroke-width="2"/>
<path d="M-183 68.1057C-183 68.1057 46.0075 -15.2621 163.475 68.1057C264.486 139.794 231.604 303.238 334.289 371.161C440.76 441.588 539.364 294.93 643.209 371.161C743.904 445.079 692.587 617.659 792.217 693.768C881.01 761.598 974.894 651.693 1057.53 730.616C1129.14 799.014 1085.23 922.939 1158.08 989.303C1261.74 1083.75 1374.1 870.317 1485.77 949.447C1584.85 1019.65 1535.15 1185.36 1629.33 1265.29C1732.88 1353.17 1848.55 1209.13 1949.15 1302.13C2009.48 1357.9 2060 1497.65 2060 1497.65" stroke="#782BF5" stroke-opacity="0.1" stroke-width="2"/>
<path d="M-173 83.1323C-173 83.1323 56.0075 -0.23553 173.475 83.1323C274.486 154.821 241.604 318.265 344.289 386.187C450.76 456.614 549.364 309.956 653.209 386.187C753.904 460.106 702.587 632.685 802.217 708.795C891.01 776.625 984.894 666.719 1067.53 745.642C1139.14 814.041 1095.23 937.966 1168.08 1004.33C1271.74 1098.78 1384.1 885.343 1495.77 964.474C1594.85 1034.68 1545.15 1200.39 1639.33 1280.31C1742.88 1368.19 1858.55 1224.15 1959.15 1317.16C2019.48 1372.93 2070 1512.68 2070 1512.68" stroke="#782BF5" stroke-opacity="0.1" stroke-width="2"/>
<path d="M-163 98.159C-163 98.159 66.0075 14.7911 183.475 98.159C284.486 169.848 251.604 333.291 354.289 401.214C460.76 471.641 559.364 324.983 663.209 401.214C763.904 475.133 712.587 647.712 812.217 723.821C901.01 791.651 994.894 681.746 1077.53 760.669C1149.14 829.067 1105.23 952.993 1178.08 1019.36C1281.74 1113.8 1394.1 900.37 1505.77 979.5C1604.85 1049.7 1555.15 1215.42 1649.33 1295.34C1752.88 1383.22 1868.55 1239.18 1969.15 1332.19C2029.48 1387.95 2080 1527.71 2080 1527.71" stroke="#782BF5" stroke-opacity="0.1" stroke-width="2"/>
<path d="M-153 113.186C-153 113.186 76.0075 29.8177 193.475 113.186C294.486 184.874 261.604 348.318 364.289 416.241C470.76 486.668 569.364 340.009 673.209 416.241C773.904 490.159 722.587 662.738 822.217 738.848C911.01 806.678 1004.89 696.773 1087.53 775.696C1159.14 844.094 1115.23 968.019 1188.08 1034.38C1291.74 1128.83 1404.1 915.397 1515.77 994.527C1614.85 1064.73 1565.15 1230.44 1659.33 1310.37C1762.88 1398.25 1878.55 1254.21 1979.15 1347.21C2039.48 1402.98 2090 1542.73 2090 1542.73" stroke="#782BF5" stroke-opacity="0.1" stroke-width="2"/>
<path d="M-143 128.212C-143 128.212 86.0075 44.8444 203.475 128.212C304.486 199.901 271.604 363.345 374.289 431.267C480.76 501.694 579.364 355.036 683.209 431.267C783.904 505.186 732.587 677.765 832.217 753.874C921.01 821.705 1014.89 711.799 1097.53 790.722C1169.14 859.121 1125.23 983.046 1198.08 1049.41C1301.74 1143.86 1414.1 930.423 1525.77 1009.55C1624.85 1079.76 1575.15 1245.47 1669.33 1325.39C1772.88 1413.27 1888.55 1269.23 1989.15 1362.24C2049.48 1418.01 2100 1557.76 2100 1557.76" stroke="#782BF5" stroke-opacity="0.1" stroke-width="2"/>
<path d="M-133 143.239C-133 143.239 96.0075 59.871 213.475 143.239C314.486 214.928 281.604 378.371 384.289 446.294C490.76 516.721 589.364 370.063 693.209 446.294C793.904 520.212 742.587 692.792 842.217 768.901C931.01 836.731 1024.89 726.826 1107.53 805.749C1179.14 874.147 1135.23 998.073 1208.08 1064.44C1311.74 1158.88 1424.1 945.45 1535.77 1024.58C1634.85 1094.78 1585.15 1260.5 1679.33 1340.42C1782.88 1428.3 1898.55 1284.26 1999.15 1377.27C2059.48 1433.03 2110 1572.79 2110 1572.79" stroke="#782BF5" stroke-opacity="0.1" stroke-width="2"/>
<path d="M-123 158.266C-123 158.266 106.007 74.8976 223.475 158.266C324.486 229.954 291.604 393.398 394.289 461.321C500.76 531.748 599.364 385.089 703.209 461.321C803.904 535.239 752.587 707.818 852.217 783.928C941.01 851.758 1034.89 741.853 1117.53 820.776C1189.14 889.174 1145.23 1013.1 1218.08 1079.46C1321.74 1173.91 1434.1 960.477 1545.77 1039.61C1644.85 1109.81 1595.15 1275.52 1689.33 1355.45C1792.88 1443.33 1908.55 1299.29 2009.15 1392.29C2069.48 1448.06 2120 1587.81 2120 1587.81" stroke="#782BF5" stroke-opacity="0.1" stroke-width="2"/>
<path d="M-113 173.292C-113 173.292 116.007 89.9243 233.475 173.292C334.486 244.981 301.604 408.424 404.289 476.347C510.76 546.774 609.364 400.116 713.209 476.347C813.904 550.266 762.587 722.845 862.217 798.954C951.01 866.784 1044.89 756.879 1127.53 835.802C1199.14 904.2 1155.23 1028.13 1228.08 1094.49C1331.74 1188.94 1444.1 975.503 1555.77 1054.63C1654.85 1124.84 1605.15 1290.55 1699.33 1370.47C1802.88 1458.35 1918.55 1314.31 2019.15 1407.32C2079.48 1463.09 2130 1602.84 2130 1602.84" stroke="#782BF5" stroke-opacity="0.1" stroke-width="2"/>
<path d="M-103 188.319C-103 188.319 126.007 104.951 243.475 188.319C344.486 260.007 311.604 423.451 414.289 491.374C520.76 561.801 619.364 415.143 723.209 491.374C823.904 565.292 772.587 737.872 872.217 813.981C961.01 881.811 1054.89 771.906 1137.53 850.829C1209.14 919.227 1165.23 1043.15 1238.08 1109.52C1341.74 1203.96 1454.1 990.53 1565.77 1069.66C1664.85 1139.86 1615.15 1305.58 1709.33 1385.5C1812.88 1473.38 1928.55 1329.34 2029.15 1422.35C2089.48 1478.11 2140 1617.87 2140 1617.87" stroke="#782BF5" stroke-opacity="0.1" stroke-width="2"/>
<path d="M-93 203.345C-93 203.345 136.007 119.978 253.475 203.345C354.486 275.034 321.604 438.478 424.289 506.401C530.76 576.828 629.364 430.169 733.209 506.401C833.904 580.319 782.587 752.898 882.217 829.008C971.01 896.838 1064.89 786.932 1147.53 865.856C1219.14 934.254 1175.23 1058.18 1248.08 1124.54C1351.74 1218.99 1464.1 1005.56 1575.77 1084.69C1674.85 1154.89 1625.15 1320.6 1719.33 1400.53C1822.88 1488.41 1938.55 1344.37 2039.15 1437.37C2099.48 1493.14 2150 1632.89 2150 1632.89" stroke="#782BF5" stroke-opacity="0.1" stroke-width="2"/>
<path d="M-83 218.372C-83 218.372 146.007 135.004 263.475 218.372C364.486 290.061 331.604 453.504 434.289 521.427C540.76 591.854 639.364 445.196 743.209 521.427C843.904 595.346 792.587 767.925 892.217 844.034C981.01 911.864 1074.89 801.959 1157.53 880.882C1229.14 949.28 1185.23 1073.21 1258.08 1139.57C1361.74 1234.02 1474.1 1020.58 1585.77 1099.71C1684.85 1169.92 1635.15 1335.63 1729.33 1415.55C1832.88 1503.43 1948.55 1359.39 2049.15 1452.4C2109.48 1508.17 2160 1647.92 2160 1647.92" stroke="#782BF5" stroke-opacity="0.1" stroke-width="2"/>
<path d="M-73 233.399C-73 233.399 156.007 150.031 273.475 233.399C374.486 305.087 341.604 468.531 444.289 536.454C550.76 606.881 649.364 460.223 753.209 536.454C853.904 610.372 802.587 782.952 902.217 859.061C991.01 926.891 1084.89 816.986 1167.53 895.909C1239.14 964.307 1195.23 1088.23 1268.08 1154.6C1371.74 1249.04 1484.1 1035.61 1595.77 1114.74C1694.85 1184.94 1645.15 1350.66 1739.33 1430.58C1842.88 1518.46 1958.55 1374.42 2059.15 1467.43C2119.48 1523.19 2170 1662.95 2170 1662.95" stroke="#782BF5" stroke-opacity="0.1" stroke-width="2"/>
<path d="M-63 248.425C-63 248.425 166.007 165.058 283.475 248.425C384.486 320.114 351.604 483.558 454.289 551.481C560.76 621.908 659.364 475.249 763.209 551.481C863.904 625.399 812.587 797.978 912.217 874.088C1001.01 941.918 1094.89 832.012 1177.53 910.936C1249.14 979.334 1205.23 1103.26 1278.08 1169.62C1381.74 1264.07 1494.1 1050.64 1605.77 1129.77C1704.85 1199.97 1655.15 1365.68 1749.33 1445.61C1852.88 1533.49 1968.55 1389.45 2069.15 1482.45C2129.48 1538.22 2180 1677.97 2180 1677.97" stroke="#782BF5" stroke-opacity="0.1" stroke-width="2"/>
<path d="M-53 263.452C-53 263.452 176.007 180.084 293.475 263.452C394.486 335.141 361.604 498.584 464.289 566.507C570.76 636.934 669.364 490.276 773.209 566.507C873.904 640.426 822.587 813.005 922.217 889.114C1011.01 956.944 1104.89 847.039 1187.53 925.962C1259.14 994.36 1215.23 1118.29 1288.08 1184.65C1391.74 1279.1 1504.1 1065.66 1615.77 1144.79C1714.85 1215 1665.15 1380.71 1759.33 1460.63C1862.88 1548.51 1978.55 1404.47 2079.15 1497.48C2139.48 1553.25 2190 1693 2190 1693" stroke="#782BF5" stroke-opacity="0.1" stroke-width="2"/>
</svg>
