<svg width="1681" height="932" viewBox="0 0 1681 932" fill="none" xmlns="http://www.w3.org/2000/svg">
<path d="M37.7896 931C37.7896 931 -44.987 842 37.7896 796.348C108.97 757.092 271.254 769.871 338.695 729.964C408.623 688.586 263.005 650.265 338.695 609.908C412.09 570.774 583.445 590.717 659.015 551.998C726.364 517.49 617.238 481.004 695.601 448.89C763.514 421.06 886.561 438.122 952.454 409.813C1046.23 369.525 834.311 325.861 912.881 282.459C982.584 243.955 1147.12 263.268 1226.48 226.668C1313.74 186.424 1170.72 141.473 1263.07 102.374C1318.44 78.9307 1457.2 59.2951 1457.2 59.2951" stroke="#782BF5" stroke-opacity="0.1" stroke-width="2"/>
<path d="M52.7095 927.114C52.7095 927.114 -30.0671 838.114 52.7095 792.462C123.89 753.206 286.174 765.985 353.615 726.078C423.543 684.699 277.925 646.379 353.615 606.021C427.01 566.888 598.365 586.831 673.934 548.111C741.284 513.604 632.158 477.117 710.521 445.004C778.434 417.173 901.481 434.236 967.374 405.927C1061.15 365.638 849.231 321.974 927.801 278.573C997.504 240.068 1162.04 259.382 1241.4 222.782C1328.66 182.537 1185.64 137.587 1277.99 98.4878C1333.36 75.0442 1472.12 55.4087 1472.12 55.4087" stroke="#782BF5" stroke-opacity="0.1" stroke-width="2"/>
<path d="M67.6304 923.227C67.6304 923.227 -15.1462 834.227 67.6304 788.576C138.811 749.319 301.095 762.098 368.536 722.191C438.464 680.813 292.846 642.493 368.536 602.135C441.93 563.002 613.286 582.945 688.855 544.225C756.204 509.718 647.079 473.231 725.442 441.118C793.355 413.287 916.402 430.35 982.295 402.041C1076.07 361.752 864.152 318.088 942.721 274.686C1012.43 236.182 1176.96 255.496 1256.32 218.895C1343.58 178.651 1200.56 133.701 1292.91 94.6015C1348.28 71.158 1487.04 51.5224 1487.04 51.5224" stroke="#782BF5" stroke-opacity="0.1" stroke-width="2"/>
<path d="M82.5504 919.341C82.5504 919.341 -0.226273 830.341 82.5504 784.689C153.731 745.433 316.015 758.212 383.456 718.305C453.384 676.927 307.766 638.606 383.456 598.249C456.85 559.115 628.206 579.058 703.775 540.339C771.124 505.831 661.999 469.345 740.362 437.232C808.275 409.401 931.321 426.463 997.215 398.154C1090.99 357.866 879.072 314.202 957.641 270.8C1027.35 232.296 1191.88 251.61 1271.24 215.009C1358.5 174.765 1215.48 129.814 1307.83 90.7153C1363.2 67.2718 1501.96 47.6362 1501.96 47.6362" stroke="#782BF5" stroke-opacity="0.1" stroke-width="2"/>
<path d="M97.4703 915.455C97.4703 915.455 14.6936 826.455 97.4703 780.803C168.65 741.547 330.935 754.326 398.376 714.419C468.304 673.04 322.686 634.72 398.376 594.362C471.77 555.229 643.126 575.172 718.695 536.452C786.044 501.945 676.918 465.458 755.282 433.345C823.195 405.514 946.241 422.577 1012.13 394.268C1105.91 353.979 893.992 310.315 972.561 266.914C1042.27 228.409 1206.8 247.723 1286.16 211.123C1373.42 170.878 1230.4 125.928 1322.75 86.8288C1378.12 63.3853 1516.88 43.7497 1516.88 43.7497" stroke="#782BF5" stroke-opacity="0.1" stroke-width="2"/>
<path d="M112.39 911.568C112.39 911.568 29.6136 822.568 112.39 776.917C183.57 737.66 345.855 750.439 413.296 710.532C483.224 669.154 337.605 630.834 413.296 590.476C486.69 551.343 658.046 571.286 733.615 532.566C800.964 498.059 691.838 461.572 770.202 429.459C838.115 401.628 961.161 418.691 1027.05 390.382C1120.83 350.093 908.912 306.429 987.481 263.027C1057.19 224.523 1221.72 243.837 1301.08 207.236C1388.34 166.992 1245.32 122.042 1337.67 82.9426C1393.04 59.4991 1531.8 39.8635 1531.8 39.8635" stroke="#782BF5" stroke-opacity="0.1" stroke-width="2"/>
<path d="M127.309 907.682C127.309 907.682 44.5325 818.682 127.309 773.03C198.489 733.774 360.774 746.553 428.215 706.646C498.142 665.268 352.524 626.947 428.215 586.589C501.609 547.456 672.965 567.399 748.534 528.68C815.883 494.172 706.757 457.685 785.121 425.572C853.034 397.742 976.08 414.804 1041.97 386.495C1135.75 346.206 923.831 302.543 1002.4 259.141C1072.1 220.637 1236.64 239.95 1316 203.35C1403.26 163.106 1260.24 118.155 1352.59 79.0561C1407.96 55.6126 1546.72 35.977 1546.72 35.977" stroke="#782BF5" stroke-opacity="0.1" stroke-width="2"/>
<path d="M142.23 903.796C142.23 903.796 59.4534 814.796 142.23 769.144C213.41 729.888 375.695 742.667 443.136 702.76C513.063 661.381 367.445 623.061 443.136 582.703C516.53 543.57 687.886 563.513 763.455 524.794C830.804 490.286 721.678 453.799 800.042 421.686C867.955 393.856 991.001 410.918 1056.89 382.609C1150.67 342.32 938.752 298.656 1017.32 255.255C1087.02 216.75 1251.56 236.064 1330.92 199.464C1418.18 159.219 1275.16 114.269 1367.51 75.1699C1422.88 51.7264 1561.64 32.0908 1561.64 32.0908" stroke="#782BF5" stroke-opacity="0.1" stroke-width="2"/>
<path d="M157.149 899.909C157.149 899.909 74.3724 810.909 157.149 765.258C228.329 726.001 390.614 738.781 458.055 698.874C527.982 657.495 382.364 619.175 458.055 578.817C531.449 539.684 702.804 559.627 778.374 520.907C845.723 486.4 736.597 449.913 814.961 417.8C882.874 389.969 1005.92 407.032 1071.81 378.723C1165.59 338.434 953.671 294.77 1032.24 251.369C1101.94 212.864 1266.48 232.178 1345.84 195.578C1433.1 155.333 1290.08 110.383 1382.43 71.2837C1437.8 47.8401 1576.56 28.2046 1576.56 28.2046" stroke="#782BF5" stroke-opacity="0.1" stroke-width="2"/>
<path d="M172.071 896.023C172.071 896.023 89.2942 807.023 172.071 761.371C243.251 722.115 405.536 734.894 472.977 694.987C542.904 653.609 397.286 615.288 472.977 574.93C546.371 535.797 717.726 555.74 793.296 517.021C860.645 482.513 751.519 446.026 829.882 413.913C897.796 386.083 1020.84 403.145 1086.74 374.836C1180.51 334.548 968.593 290.884 1047.16 247.482C1116.87 208.978 1281.41 228.291 1360.76 191.691C1448.02 151.447 1305 106.496 1397.35 67.3972C1452.72 43.9537 1591.48 24.3181 1591.48 24.3181" stroke="#782BF5" stroke-opacity="0.1" stroke-width="2"/>
<path d="M186.991 892.136C186.991 892.136 104.214 803.137 186.991 757.485C258.171 718.229 420.455 731.008 487.897 691.101C557.824 649.722 412.206 611.402 487.897 571.044C561.291 531.911 732.646 551.854 808.216 513.134C875.565 478.627 766.439 442.14 844.802 410.027C912.715 382.196 1035.76 399.259 1101.65 370.95C1195.43 330.661 983.513 286.997 1062.08 243.596C1131.79 205.091 1296.33 224.405 1375.68 187.805C1462.94 147.56 1319.92 102.61 1412.27 63.5107C1467.64 40.0672 1606.4 20.4316 1606.4 20.4316" stroke="#782BF5" stroke-opacity="0.1" stroke-width="2"/>
<path d="M201.911 888.25C201.911 888.25 119.134 799.251 201.911 753.599C273.091 714.343 435.375 727.122 502.817 687.215C572.744 645.836 427.126 607.516 502.817 567.158C576.211 528.025 747.566 547.968 823.136 509.248C890.485 474.741 781.359 438.254 859.722 406.141C927.635 378.31 1050.68 395.373 1116.57 367.064C1210.35 326.775 998.432 283.111 1077 239.71C1146.71 201.205 1311.25 220.519 1390.6 183.919C1477.86 143.674 1334.84 98.7239 1427.19 59.6247C1482.56 36.1812 1621.32 16.5456 1621.32 16.5456" stroke="#782BF5" stroke-opacity="0.1" stroke-width="2"/>
<path d="M216.831 884.364C216.831 884.364 134.054 795.364 216.831 749.712C288.011 710.456 450.295 723.235 517.736 683.328C587.664 641.95 442.046 603.629 517.736 563.272C591.131 524.138 762.486 544.081 838.056 505.362C905.405 470.854 796.279 434.368 874.642 402.254C942.555 374.424 1065.6 391.486 1131.49 363.177C1225.27 322.889 1013.35 279.225 1091.92 235.823C1161.63 197.319 1326.17 216.632 1405.52 180.032C1492.78 139.788 1349.76 94.8374 1442.11 55.7383C1497.48 32.2947 1636.24 12.6591 1636.24 12.6591" stroke="#782BF5" stroke-opacity="0.1" stroke-width="2"/>
<path d="M231.751 880.478C231.751 880.478 148.974 791.478 231.751 745.826C302.931 706.57 465.215 719.349 532.656 679.442C602.584 638.063 456.966 599.743 532.656 559.385C606.051 520.252 777.406 540.195 852.976 501.475C920.325 466.968 811.199 430.481 889.562 398.368C957.475 370.537 1080.52 387.6 1146.41 359.291C1240.19 319.002 1028.27 275.338 1106.84 231.937C1176.55 193.432 1341.09 212.746 1420.44 176.146C1507.7 135.901 1364.68 90.9509 1457.03 51.8518C1512.4 28.4083 1651.16 8.77267 1651.16 8.77267" stroke="#782BF5" stroke-opacity="0.1" stroke-width="2"/>
<path d="M246.671 876.591C246.671 876.591 163.895 787.591 246.671 741.94C317.852 702.683 480.136 715.462 547.577 675.555C617.505 634.177 471.887 595.857 547.577 555.499C620.972 516.366 792.327 536.309 867.896 497.589C935.245 463.082 826.12 426.595 904.483 394.482C972.396 366.651 1095.44 383.714 1161.34 355.405C1255.11 315.116 1043.19 271.452 1121.76 228.05C1191.47 189.546 1356.01 208.86 1435.36 172.259C1522.62 132.015 1379.6 87.0647 1471.95 47.9656C1527.32 24.522 1666.08 4.88644 1666.08 4.88644" stroke="#782BF5" stroke-opacity="0.1" stroke-width="2"/>
<path d="M261.59 872.705C261.59 872.705 178.814 783.705 261.59 738.053C332.771 698.797 495.055 711.576 562.496 671.669C632.424 630.291 486.806 591.97 562.496 551.613C635.89 512.479 807.246 532.423 882.815 493.703C950.164 459.195 841.039 422.709 919.402 390.596C987.315 362.765 1110.36 379.828 1176.25 351.518C1270.03 311.23 1058.11 267.566 1136.68 224.164C1206.39 185.66 1370.92 204.974 1450.28 168.373C1537.54 128.129 1394.52 83.1785 1486.87 44.0793C1542.24 20.6358 1681 1.0002 1681 1.0002" stroke="#782BF5" stroke-opacity="0.1" stroke-width="2"/>
</svg>
